<svg id="x" xmlns="http://www.w3.org/2000/svg" preserveAspectRatio="xMinYMin meet" viewBox="0 0 32 32"><path fill="#638596" d="M0 0h32v32H0z"/><path fill="#D5C6E1" d="m3 27h13v1h-13v-1zm1-1h13v1h-13v-1zm1-1h12v1h-12v-1zm1-1h13v1h-13v-1zm1-1h12v1h-12v-1zm2-1h10v1h-10v-1zm2-1h8v1h-8v-1zm0-1h4v1h-4v-1zm0-1h3v1h-3v-1zm0-3h2v3h-2v-3zm0-2h5v2h-5v-2zm3 2h2v3h-2v-3zm1 3h6v1h-6v-1zm1-2h9v2h-9v-2zm4-1h2v1h-2v-1zm0 4h4v1h-4v-1zm4-1h1v1h-1v-1zm1-1h1v1h-1v-1zm0-1h2v1h-2v-1zm-14-8h6v5h-6v-5zm5 5h1v1h-1v-1zm-6-11h1v4h-1v-4zm1 4h1v2h-1v-2zm5-3h1v5h-1v-5z"/><path fill="#000" d="m2 27h1v2h-1v-2zm1-1h1v1h-1v-1zm1-1h1v1h-1v-1zm1-1h1v1h-1v-1zm1-1h1v1h-1v-1zm1-1h2v1h-2v-1zm2-1h2v1h-2v-1zm1-14h1v14h-1v-14zm-1-5h1v5h-1v-5zm1 0h1v1h-1v-1zm1 1h1v4h-1v-4zm1 4h1v2h-1v-2zm1 1h3v1h-3v-1zm2-6h1v6h-1v-6zm1 0h1v2h-1v-2zm1 1h1v12h-1v-12zm-14 25h14v1h-14v-1zm13-1h1v1h-1v-1zm1-2h1v2h-1v-2zm1 0h1v1h-1v-1zm1-5h1v5h-1v-5zm-4 0h4v1h-4v-1zm-1-1h1v1h-1v-1zm-1-3h1v3h-1v-3zm3-1h1v2h-1v-2zm1 1h3v1h-3v-1zm2-1h3v1h-3v-1zm3-1h3v3h-3v-3zm3 2h3v1h-3v-1zm2 1h1v2h-1v-2zm-1 1h1v2h-1v-2zm-1 1h1v2h-1v-2zm-1 1h1v2h-1v-2zm-4 1h4v1h-4v-1zm1-2h3v1h-3v-1zm-9-6h1v1h-1v-1zm3 0h1v1h-1v-1z" /><path fill="#000" fill-opacity=".2" d="m13 13h1v1h-1v-1zm3 0h1v1h-1v-1z"/><path fill="#000" fill-opacity=".4" d="m3 27h1v1h-1v-1zm2-2h1v3h-1v-3zm2-2h1v5h-1v-5zm2-1h1v6h-1v-6zm1 5h1v1h-1v-1zm1-3h8v1h-8v-1zm1 1h5v1h-5v-1zm0-13h2v1h-2v-1zm3 0h2v1h-2v-1z"/><path fill="#000" d="m10 11h8v1h-8v-1zm2 1h2v2h-2v-2z" /><path fill="#000" d="m9 8h1v2h-1v-2zm1-1h1v1h-1v-1zm1-1h1v1h-1v-1zm7 2h1v2h-1v-2zm-1-1h1v1h-1v-1zm-1-1h1v1h-1v-1zm-4-1h4v1h-4v-1z" /><path fill="#CA4E11" d="m10 8h8v2h-8v-2zm1-1h6v1h-6v-1zm1-1h4v1h-4v-1z" /><path fill="#933709" d="m10 8h8v1h-8v-1zm1 1h1v1h-1v-1zm2 0h1v1h-1v-1zm2 0h1v1h-1v-1zm2 0h1v1h-1v-1z" /><path fill="#000" d="m24 18h6v1h-6v-1zm0 2h6v1h-6v-1zm6-1h1v1h-1v-1z" /><path fill="#595959" d="m24 19h5v1h-5v-1z" /><path fill="#0040FF" d="m29 19h1v1h-1v-1z" /><style>#x{shape-rendering: crispedges;}</style></svg>